<svg width="10" height="10" viewBox="0 0 10 10" fill="none" xmlns="http://www.w3.org/2000/svg">
<path d="M3.94874 9.75419C4.38459 9.75419 4.71409 9.58682 4.93724 9.2521L9.76464 1.97699C9.84484 1.85844 9.90411 1.74164 9.94247 1.62657C9.98082 1.50802 10 1.3947 10 1.28661C10 0.986754 9.8954 0.739194 9.68619 0.543936C9.48047 0.345191 9.22594 0.245819 8.92259 0.245819C8.71339 0.245819 8.53556 0.28766 8.38912 0.371342C8.24616 0.451537 8.11018 0.591007 7.98117 0.789752L3.92782 7.15482L1.89854 4.72281C1.67887 4.46827 1.40342 4.34101 1.07218 4.34101C0.761855 4.34101 0.505579 4.44038 0.303347 4.63912C0.101116 4.83787 0 5.08717 0 5.38703C0 5.52302 0.0209205 5.65203 0.0627615 5.77406C0.108089 5.89261 0.190028 6.01639 0.308577 6.1454L3.00209 9.32009C3.24965 9.60949 3.5652 9.75419 3.94874 9.75419Z" fill="white"/>
</svg>
